<svg xmlns="http://www.w3.org/2000/svg" xmlns:xlink="http://www.w3.org/1999/xlink" width="500" zoomAndPan="magnify" viewBox="0 0 375 374.999991" height="500" preserveAspectRatio="xMidYMid meet" version="1.0"><defs><g/><clipPath id="3abf6ee83b"><path d="M 22 128.066406 L 125 128.066406 L 125 254.816406 L 22 254.816406 Z M 22 128.066406 " clip-rule="nonzero"/></clipPath><clipPath id="3c28a50891"><path d="M 52.695312 158 L 93.945312 158 L 93.945312 217.226562 L 52.695312 217.226562 Z M 52.695312 158 " clip-rule="nonzero"/></clipPath><clipPath id="b391767430"><path d="M 132.183594 210.042969 L 285.539062 210.042969 L 285.539062 225.367188 L 132.183594 225.367188 Z M 132.183594 210.042969 " clip-rule="nonzero"/></clipPath><clipPath id="ac9326d0df"><path d="M 288.539062 210.042969 L 334.390625 210.042969 L 334.390625 225.367188 L 288.539062 225.367188 Z M 288.539062 210.042969 " clip-rule="nonzero"/></clipPath><clipPath id="bf19366aa4"><path d="M 337.5 210.042969 L 349.078125 210.042969 L 349.078125 225.367188 L 337.5 225.367188 Z M 337.5 210.042969 " clip-rule="nonzero"/></clipPath></defs><g clip-path="url(#3abf6ee83b)"><path fill="#000000" d="M 123.464844 146.328125 C 123.464844 146.328125 85.652344 143.363281 73.320312 128.066406 C 60.984375 143.363281 23.171875 146.328125 23.171875 146.328125 C 23.171875 146.328125 20.816406 185.332031 23.933594 197.691406 C 35.101562 242.316406 73.320312 254.675781 73.320312 254.675781 C 73.320312 254.675781 111.5625 242.292969 122.707031 197.691406 C 125.820312 185.332031 123.464844 146.328125 123.464844 146.328125 Z M 123.464844 146.328125 " fill-opacity="1" fill-rule="nonzero"/></g><path fill="#ca2323" d="M 117.792969 196.476562 C 108.625 233.171875 80.410156 246.46875 73.34375 249.28125 C 66.253906 246.46875 38.0625 233.171875 28.894531 196.476562 C 26.792969 188.042969 27.425781 163.753906 28.058594 150.9375 C 37.761719 149.722656 60.757812 145.847656 73.34375 135.257812 C 85.933594 145.847656 108.953125 149.722656 118.628906 150.9375 C 119.238281 163.753906 119.894531 188.042969 117.792969 196.476562 Z M 117.792969 196.476562 " fill-opacity="1" fill-rule="nonzero"/><path fill="#9f1717" d="M 117.792969 196.476562 C 108.625 233.171875 80.410156 246.46875 73.34375 249.28125 L 73.34375 135.257812 C 85.933594 145.847656 108.953125 149.722656 118.628906 150.9375 C 119.238281 163.753906 119.894531 188.042969 117.792969 196.476562 Z M 117.792969 196.476562 " fill-opacity="1" fill-rule="nonzero"/><g clip-path="url(#3c28a50891)"><path fill="#000000" d="M 90.300781 211.835938 C 90.300781 212.296875 90.117188 212.707031 89.808594 213.019531 C 89.496094 213.328125 89.085938 213.515625 88.625 213.515625 L 58.015625 213.515625 C 57.550781 213.511719 57.144531 213.328125 56.832031 213.019531 C 56.527344 212.707031 56.34375 212.296875 56.339844 211.835938 L 56.339844 187.246094 C 56.34375 186.785156 56.523438 186.375 56.832031 186.0625 C 57.144531 185.753906 57.554688 185.566406 58.015625 185.566406 L 88.625 185.566406 C 89.085938 185.566406 89.496094 185.753906 89.808594 186.0625 C 90.117188 186.375 90.300781 186.785156 90.300781 187.246094 Z M 64.160156 164.925781 C 66.160156 162.925781 68.894531 161.695312 71.9375 161.691406 L 74.707031 161.691406 C 77.75 161.695312 80.484375 162.925781 82.480469 164.925781 C 84.472656 166.929688 85.703125 169.675781 85.703125 172.730469 L 85.703125 181.90625 L 60.941406 181.90625 L 60.941406 172.730469 C 60.941406 169.675781 62.167969 166.929688 64.160156 164.925781 Z M 89.347656 181.964844 L 89.347656 172.730469 C 89.347656 164.613281 82.792969 158.035156 74.707031 158.035156 L 71.9375 158.035156 C 63.851562 158.035156 57.296875 164.613281 57.296875 172.730469 L 57.296875 181.964844 C 54.699219 182.320312 52.703125 184.542969 52.695312 187.246094 L 52.695312 211.835938 C 52.699219 214.78125 55.074219 217.167969 58.015625 217.171875 L 88.625 217.171875 C 91.5625 217.164062 93.941406 214.785156 93.949219 211.835938 L 93.949219 187.246094 C 93.941406 184.542969 91.941406 182.324219 89.347656 181.964844 " fill-opacity="1" fill-rule="nonzero"/></g><path fill="#000000" d="M 76.96875 196.1875 C 76.96875 194.164062 75.335938 192.527344 73.320312 192.527344 C 71.308594 192.527344 69.675781 194.164062 69.675781 196.1875 C 69.675781 197.675781 70.566406 198.953125 71.839844 199.523438 L 69.238281 206.554688 L 77.40625 206.554688 L 74.804688 199.523438 C 76.078125 198.953125 76.96875 197.675781 76.96875 196.1875 " fill-opacity="1" fill-rule="nonzero"/><g clip-path="url(#b391767430)"><path fill="#000000" d="M 132.183594 210.042969 L 285.519531 210.042969 L 285.519531 225.367188 L 132.183594 225.367188 Z M 132.183594 210.042969 " fill-opacity="1" fill-rule="nonzero"/></g><g clip-path="url(#ac9326d0df)"><path fill="#ca2323" d="M 288.539062 210.042969 L 334.382812 210.042969 L 334.382812 225.367188 L 288.539062 225.367188 Z M 288.539062 210.042969 " fill-opacity="1" fill-rule="nonzero"/></g><g clip-path="url(#bf19366aa4)"><path fill="#000000" d="M 337.5 210.042969 L 349.078125 210.042969 L 349.078125 225.378906 L 337.5 225.378906 Z M 337.5 210.042969 " fill-opacity="1" fill-rule="nonzero"/></g><g fill="#000000" fill-opacity="1"><g transform="translate(131.634127, 196.626128)"><g><path d="M 22.359375 -7 C 22.691406 -7 22.96875 -6.882812 23.1875 -6.65625 L 25.515625 -4.15625 C 24.367188 -2.695312 22.941406 -1.585938 21.234375 -0.828125 C 19.523438 -0.0664062 17.492188 0.3125 15.140625 0.3125 C 13.015625 0.3125 11.097656 -0.046875 9.390625 -0.765625 C 7.691406 -1.492188 6.25 -2.503906 5.0625 -3.796875 C 3.875 -5.097656 2.957031 -6.632812 2.3125 -8.40625 C 1.675781 -10.1875 1.359375 -12.128906 1.359375 -14.234375 C 1.359375 -15.648438 1.507812 -16.992188 1.8125 -18.265625 C 2.125 -19.546875 2.570312 -20.722656 3.15625 -21.796875 C 3.75 -22.867188 4.457031 -23.835938 5.28125 -24.703125 C 6.113281 -25.566406 7.050781 -26.300781 8.09375 -26.90625 C 9.144531 -27.507812 10.285156 -27.972656 11.515625 -28.296875 C 12.753906 -28.617188 14.078125 -28.78125 15.484375 -28.78125 C 16.523438 -28.78125 17.515625 -28.6875 18.453125 -28.5 C 19.390625 -28.320312 20.257812 -28.066406 21.0625 -27.734375 C 21.875 -27.410156 22.625 -27.015625 23.3125 -26.546875 C 24 -26.085938 24.617188 -25.582031 25.171875 -25.03125 L 23.1875 -22.328125 C 23.070312 -22.148438 22.921875 -21.992188 22.734375 -21.859375 C 22.554688 -21.734375 22.304688 -21.671875 21.984375 -21.671875 C 21.671875 -21.671875 21.351562 -21.78125 21.03125 -22 C 20.71875 -22.226562 20.328125 -22.476562 19.859375 -22.75 C 19.398438 -23.03125 18.816406 -23.28125 18.109375 -23.5 C 17.410156 -23.71875 16.523438 -23.828125 15.453125 -23.828125 C 14.265625 -23.828125 13.171875 -23.613281 12.171875 -23.1875 C 11.179688 -22.757812 10.328125 -22.132812 9.609375 -21.3125 C 8.898438 -20.5 8.347656 -19.492188 7.953125 -18.296875 C 7.566406 -17.109375 7.375 -15.753906 7.375 -14.234375 C 7.375 -12.710938 7.585938 -11.351562 8.015625 -10.15625 C 8.441406 -8.957031 9.023438 -7.945312 9.765625 -7.125 C 10.503906 -6.300781 11.363281 -5.675781 12.34375 -5.25 C 13.332031 -4.820312 14.390625 -4.609375 15.515625 -4.609375 C 16.179688 -4.609375 16.785156 -4.640625 17.328125 -4.703125 C 17.867188 -4.773438 18.367188 -4.890625 18.828125 -5.046875 C 19.296875 -5.203125 19.738281 -5.398438 20.15625 -5.640625 C 20.570312 -5.890625 20.988281 -6.207031 21.40625 -6.59375 C 21.550781 -6.707031 21.703125 -6.800781 21.859375 -6.875 C 22.015625 -6.957031 22.179688 -7 22.359375 -7 Z M 22.359375 -7 "/></g></g></g><g fill="#000000" fill-opacity="1"><g transform="translate(157.484833, 196.626128)"><g><path d="M 20.984375 -20.21875 L 10.078125 5.4375 C 9.910156 5.800781 9.707031 6.070312 9.46875 6.25 C 9.226562 6.4375 8.84375 6.53125 8.3125 6.53125 L 4.296875 6.53125 L 8.125 -1.625 L 0 -20.21875 L 4.75 -20.21875 C 5.175781 -20.21875 5.503906 -20.117188 5.734375 -19.921875 C 5.972656 -19.734375 6.148438 -19.507812 6.265625 -19.25 L 10.109375 -9.578125 C 10.242188 -9.191406 10.367188 -8.804688 10.484375 -8.421875 C 10.597656 -8.035156 10.707031 -7.65625 10.8125 -7.28125 C 11.039062 -8.050781 11.304688 -8.820312 11.609375 -9.59375 L 15.1875 -19.25 C 15.289062 -19.53125 15.476562 -19.757812 15.75 -19.9375 C 16.03125 -20.125 16.332031 -20.21875 16.65625 -20.21875 Z M 20.984375 -20.21875 "/></g></g></g><g fill="#000000" fill-opacity="1"><g transform="translate(178.353679, 196.626128)"><g><path d="M 7.65625 -5.328125 C 8.164062 -4.742188 8.71875 -4.332031 9.3125 -4.09375 C 9.90625 -3.863281 10.519531 -3.75 11.15625 -3.75 C 11.820312 -3.75 12.425781 -3.867188 12.96875 -4.109375 C 13.519531 -4.347656 13.988281 -4.734375 14.375 -5.265625 C 14.769531 -5.796875 15.070312 -6.484375 15.28125 -7.328125 C 15.488281 -8.179688 15.59375 -9.210938 15.59375 -10.421875 C 15.59375 -11.492188 15.503906 -12.40625 15.328125 -13.15625 C 15.160156 -13.90625 14.910156 -14.519531 14.578125 -15 C 14.242188 -15.488281 13.835938 -15.84375 13.359375 -16.0625 C 12.878906 -16.289062 12.316406 -16.40625 11.671875 -16.40625 C 10.816406 -16.40625 10.078125 -16.21875 9.453125 -15.84375 C 8.835938 -15.46875 8.238281 -14.921875 7.65625 -14.203125 Z M 7.65625 -17.890625 C 8.445312 -18.691406 9.328125 -19.332031 10.296875 -19.8125 C 11.265625 -20.300781 12.351562 -20.546875 13.5625 -20.546875 C 14.71875 -20.546875 15.765625 -20.3125 16.703125 -19.84375 C 17.640625 -19.375 18.4375 -18.707031 19.09375 -17.84375 C 19.757812 -16.988281 20.269531 -15.945312 20.625 -14.71875 C 20.988281 -13.5 21.171875 -12.128906 21.171875 -10.609375 C 21.171875 -8.972656 20.960938 -7.484375 20.546875 -6.140625 C 20.140625 -4.804688 19.554688 -3.660156 18.796875 -2.703125 C 18.035156 -1.753906 17.128906 -1.015625 16.078125 -0.484375 C 15.023438 0.0351562 13.851562 0.296875 12.5625 0.296875 C 11.925781 0.296875 11.359375 0.234375 10.859375 0.109375 C 10.367188 -0.015625 9.910156 -0.1875 9.484375 -0.40625 C 9.066406 -0.632812 8.679688 -0.898438 8.328125 -1.203125 C 7.984375 -1.515625 7.65625 -1.859375 7.34375 -2.234375 L 7.125 -1.015625 C 7.03125 -0.640625 6.878906 -0.375 6.671875 -0.21875 C 6.460938 -0.0703125 6.179688 0 5.828125 0 L 2.234375 0 L 2.234375 -29.25 L 7.65625 -29.25 Z M 7.65625 -17.890625 "/></g></g></g><g fill="#000000" fill-opacity="1"><g transform="translate(200.752385, 196.626128)"><g><path d="M 15.0625 -12.5 C 15.0625 -13.0625 14.984375 -13.597656 14.828125 -14.109375 C 14.679688 -14.617188 14.445312 -15.066406 14.125 -15.453125 C 13.800781 -15.847656 13.390625 -16.160156 12.890625 -16.390625 C 12.390625 -16.617188 11.796875 -16.734375 11.109375 -16.734375 C 9.804688 -16.734375 8.789062 -16.363281 8.0625 -15.625 C 7.332031 -14.894531 6.851562 -13.851562 6.625 -12.5 Z M 6.546875 -9.28125 C 6.722656 -7.382812 7.265625 -6 8.171875 -5.125 C 9.078125 -4.25 10.265625 -3.8125 11.734375 -3.8125 C 12.472656 -3.8125 13.113281 -3.894531 13.65625 -4.0625 C 14.207031 -4.238281 14.6875 -4.4375 15.09375 -4.65625 C 15.507812 -4.875 15.882812 -5.070312 16.21875 -5.25 C 16.550781 -5.425781 16.878906 -5.515625 17.203125 -5.515625 C 17.617188 -5.515625 17.945312 -5.359375 18.1875 -5.046875 L 19.75 -3.078125 C 19.175781 -2.410156 18.539062 -1.859375 17.84375 -1.421875 C 17.15625 -0.984375 16.4375 -0.632812 15.6875 -0.375 C 14.945312 -0.125 14.195312 0.046875 13.4375 0.140625 C 12.675781 0.242188 11.941406 0.296875 11.234375 0.296875 C 9.828125 0.296875 8.507812 0.0664062 7.28125 -0.390625 C 6.0625 -0.859375 5 -1.546875 4.09375 -2.453125 C 3.1875 -3.367188 2.46875 -4.5 1.9375 -5.84375 C 1.414062 -7.1875 1.15625 -8.75 1.15625 -10.53125 C 1.15625 -11.90625 1.378906 -13.203125 1.828125 -14.421875 C 2.285156 -15.640625 2.9375 -16.695312 3.78125 -17.59375 C 4.632812 -18.5 5.664062 -19.21875 6.875 -19.75 C 8.09375 -20.28125 9.46875 -20.546875 11 -20.546875 C 12.300781 -20.546875 13.492188 -20.335938 14.578125 -19.921875 C 15.671875 -19.503906 16.613281 -18.90625 17.40625 -18.125 C 18.195312 -17.34375 18.8125 -16.378906 19.25 -15.234375 C 19.6875 -14.085938 19.90625 -12.78125 19.90625 -11.3125 C 19.90625 -10.90625 19.882812 -10.570312 19.84375 -10.3125 C 19.8125 -10.050781 19.75 -9.84375 19.65625 -9.6875 C 19.5625 -9.53125 19.4375 -9.421875 19.28125 -9.359375 C 19.125 -9.304688 18.921875 -9.28125 18.671875 -9.28125 Z M 6.546875 -9.28125 "/></g></g></g><g fill="#000000" fill-opacity="1"><g transform="translate(221.778141, 196.626128)"><g><path d="M 7.3125 -16.890625 C 7.957031 -18.035156 8.695312 -18.941406 9.53125 -19.609375 C 10.375 -20.285156 11.351562 -20.625 12.46875 -20.625 C 13.382812 -20.625 14.132812 -20.40625 14.71875 -19.96875 L 14.359375 -15.96875 C 14.296875 -15.707031 14.191406 -15.523438 14.046875 -15.421875 C 13.910156 -15.328125 13.726562 -15.28125 13.5 -15.28125 C 13.289062 -15.28125 12.988281 -15.304688 12.59375 -15.359375 C 12.195312 -15.421875 11.832031 -15.453125 11.5 -15.453125 C 11 -15.453125 10.554688 -15.378906 10.171875 -15.234375 C 9.785156 -15.097656 9.441406 -14.894531 9.140625 -14.625 C 8.835938 -14.363281 8.566406 -14.046875 8.328125 -13.671875 C 8.085938 -13.296875 7.863281 -12.863281 7.65625 -12.375 L 7.65625 0 L 2.234375 0 L 2.234375 -20.21875 L 5.4375 -20.21875 C 5.988281 -20.21875 6.367188 -20.117188 6.578125 -19.921875 C 6.785156 -19.734375 6.929688 -19.394531 7.015625 -18.90625 Z M 7.3125 -16.890625 "/></g></g></g><g fill="#ca2323" fill-opacity="1"><g transform="translate(236.567256, 196.626128)"><g><path d="M 18.40625 -23.015625 C 18.21875 -22.710938 18.03125 -22.488281 17.84375 -22.34375 C 17.65625 -22.207031 17.410156 -22.140625 17.109375 -22.140625 C 16.816406 -22.140625 16.503906 -22.238281 16.171875 -22.4375 C 15.835938 -22.644531 15.445312 -22.867188 15 -23.109375 C 14.5625 -23.347656 14.050781 -23.566406 13.46875 -23.765625 C 12.894531 -23.960938 12.222656 -24.0625 11.453125 -24.0625 C 10.097656 -24.0625 9.078125 -23.757812 8.390625 -23.15625 C 7.710938 -22.550781 7.375 -21.757812 7.375 -20.78125 C 7.375 -20.144531 7.5625 -19.617188 7.9375 -19.203125 C 8.3125 -18.796875 8.800781 -18.441406 9.40625 -18.140625 C 10.007812 -17.835938 10.695312 -17.566406 11.46875 -17.328125 C 12.25 -17.097656 13.039062 -16.84375 13.84375 -16.5625 C 14.65625 -16.28125 15.445312 -15.945312 16.21875 -15.5625 C 16.988281 -15.1875 17.675781 -14.710938 18.28125 -14.140625 C 18.894531 -13.566406 19.390625 -12.863281 19.765625 -12.03125 C 20.140625 -11.207031 20.328125 -10.195312 20.328125 -9 C 20.328125 -7.707031 20.097656 -6.492188 19.640625 -5.359375 C 19.191406 -4.234375 18.539062 -3.25 17.6875 -2.40625 C 16.84375 -1.5625 15.796875 -0.894531 14.546875 -0.40625 C 13.296875 0.0703125 11.878906 0.3125 10.296875 0.3125 C 9.398438 0.3125 8.503906 0.21875 7.609375 0.03125 C 6.710938 -0.144531 5.847656 -0.394531 5.015625 -0.71875 C 4.179688 -1.050781 3.394531 -1.445312 2.65625 -1.90625 C 1.925781 -2.363281 1.289062 -2.875 0.75 -3.4375 L 2.46875 -6.21875 C 2.613281 -6.425781 2.800781 -6.597656 3.03125 -6.734375 C 3.269531 -6.867188 3.519531 -6.9375 3.78125 -6.9375 C 4.132812 -6.9375 4.507812 -6.804688 4.90625 -6.546875 C 5.300781 -6.285156 5.75 -6 6.25 -5.6875 C 6.757812 -5.375 7.351562 -5.085938 8.03125 -4.828125 C 8.707031 -4.566406 9.515625 -4.4375 10.453125 -4.4375 C 11.828125 -4.4375 12.890625 -4.75 13.640625 -5.375 C 14.390625 -6 14.765625 -6.9375 14.765625 -8.1875 C 14.765625 -8.90625 14.578125 -9.484375 14.203125 -9.921875 C 13.835938 -10.367188 13.351562 -10.742188 12.75 -11.046875 C 12.144531 -11.347656 11.457031 -11.601562 10.6875 -11.8125 C 9.914062 -12.03125 9.125 -12.269531 8.3125 -12.53125 C 7.5 -12.789062 6.707031 -13.101562 5.9375 -13.46875 C 5.164062 -13.84375 4.476562 -14.328125 3.875 -14.921875 C 3.28125 -15.523438 2.796875 -16.269531 2.421875 -17.15625 C 2.046875 -18.050781 1.859375 -19.160156 1.859375 -20.484375 C 1.859375 -21.535156 2.066406 -22.554688 2.484375 -23.546875 C 2.910156 -24.546875 3.523438 -25.429688 4.328125 -26.203125 C 5.140625 -26.972656 6.140625 -27.59375 7.328125 -28.0625 C 8.515625 -28.539062 9.867188 -28.78125 11.390625 -28.78125 C 13.109375 -28.78125 14.695312 -28.515625 16.15625 -27.984375 C 17.613281 -27.453125 18.847656 -26.71875 19.859375 -25.78125 Z M 18.40625 -23.015625 "/></g></g></g><g fill="#ca2323" fill-opacity="1"><g transform="translate(258.181423, 196.626128)"><g><path d="M 15.0625 -12.5 C 15.0625 -13.0625 14.984375 -13.597656 14.828125 -14.109375 C 14.679688 -14.617188 14.445312 -15.066406 14.125 -15.453125 C 13.800781 -15.847656 13.390625 -16.160156 12.890625 -16.390625 C 12.390625 -16.617188 11.796875 -16.734375 11.109375 -16.734375 C 9.804688 -16.734375 8.789062 -16.363281 8.0625 -15.625 C 7.332031 -14.894531 6.851562 -13.851562 6.625 -12.5 Z M 6.546875 -9.28125 C 6.722656 -7.382812 7.265625 -6 8.171875 -5.125 C 9.078125 -4.25 10.265625 -3.8125 11.734375 -3.8125 C 12.472656 -3.8125 13.113281 -3.894531 13.65625 -4.0625 C 14.207031 -4.238281 14.6875 -4.4375 15.09375 -4.65625 C 15.507812 -4.875 15.882812 -5.070312 16.21875 -5.25 C 16.550781 -5.425781 16.878906 -5.515625 17.203125 -5.515625 C 17.617188 -5.515625 17.945312 -5.359375 18.1875 -5.046875 L 19.75 -3.078125 C 19.175781 -2.410156 18.539062 -1.859375 17.84375 -1.421875 C 17.15625 -0.984375 16.4375 -0.632812 15.6875 -0.375 C 14.945312 -0.125 14.195312 0.046875 13.4375 0.140625 C 12.675781 0.242188 11.941406 0.296875 11.234375 0.296875 C 9.828125 0.296875 8.507812 0.0664062 7.28125 -0.390625 C 6.0625 -0.859375 5 -1.546875 4.09375 -2.453125 C 3.1875 -3.367188 2.46875 -4.5 1.9375 -5.84375 C 1.414062 -7.1875 1.15625 -8.75 1.15625 -10.53125 C 1.15625 -11.90625 1.378906 -13.203125 1.828125 -14.421875 C 2.285156 -15.640625 2.9375 -16.695312 3.78125 -17.59375 C 4.632812 -18.5 5.664062 -19.21875 6.875 -19.75 C 8.09375 -20.28125 9.46875 -20.546875 11 -20.546875 C 12.300781 -20.546875 13.492188 -20.335938 14.578125 -19.921875 C 15.671875 -19.503906 16.613281 -18.90625 17.40625 -18.125 C 18.195312 -17.34375 18.8125 -16.378906 19.25 -15.234375 C 19.6875 -14.085938 19.90625 -12.78125 19.90625 -11.3125 C 19.90625 -10.90625 19.882812 -10.570312 19.84375 -10.3125 C 19.8125 -10.050781 19.75 -9.84375 19.65625 -9.6875 C 19.5625 -9.53125 19.4375 -9.421875 19.28125 -9.359375 C 19.125 -9.304688 18.921875 -9.28125 18.671875 -9.28125 Z M 6.546875 -9.28125 "/></g></g></g><g fill="#ca2323" fill-opacity="1"><g transform="translate(279.20718, 196.626128)"><g><path d="M 7.265625 -17.875 C 7.660156 -18.257812 8.078125 -18.613281 8.515625 -18.9375 C 8.960938 -19.269531 9.429688 -19.550781 9.921875 -19.78125 C 10.410156 -20.019531 10.9375 -20.207031 11.5 -20.34375 C 12.070312 -20.476562 12.691406 -20.546875 13.359375 -20.546875 C 14.453125 -20.546875 15.425781 -20.351562 16.28125 -19.96875 C 17.132812 -19.59375 17.847656 -19.0625 18.421875 -18.375 C 19.003906 -17.695312 19.441406 -16.882812 19.734375 -15.9375 C 20.035156 -15 20.1875 -13.96875 20.1875 -12.84375 L 20.1875 0 L 14.796875 0 L 14.796875 -12.84375 C 14.796875 -13.96875 14.53125 -14.84375 14 -15.46875 C 13.476562 -16.09375 12.707031 -16.40625 11.6875 -16.40625 C 10.925781 -16.40625 10.210938 -16.238281 9.546875 -15.90625 C 8.878906 -15.582031 8.25 -15.125 7.65625 -14.53125 L 7.65625 0 L 2.234375 0 L 2.234375 -20.21875 L 5.578125 -20.21875 C 6.253906 -20.21875 6.703125 -19.90625 6.921875 -19.28125 Z M 7.265625 -17.875 "/></g></g></g><g fill="#ca2323" fill-opacity="1"><g transform="translate(301.448987, 196.626128)"><g><path d="M 14.8125 -16.0625 C 14.664062 -15.84375 14.515625 -15.679688 14.359375 -15.578125 C 14.210938 -15.484375 14.007812 -15.4375 13.75 -15.4375 C 13.488281 -15.4375 13.21875 -15.5 12.9375 -15.625 C 12.664062 -15.757812 12.359375 -15.898438 12.015625 -16.046875 C 11.679688 -16.203125 11.296875 -16.34375 10.859375 -16.46875 C 10.421875 -16.601562 9.914062 -16.671875 9.34375 -16.671875 C 8.457031 -16.671875 7.773438 -16.488281 7.296875 -16.125 C 6.816406 -15.769531 6.578125 -15.300781 6.578125 -14.71875 C 6.578125 -14.3125 6.710938 -13.96875 6.984375 -13.6875 C 7.253906 -13.414062 7.613281 -13.175781 8.0625 -12.96875 C 8.519531 -12.769531 9.035156 -12.582031 9.609375 -12.40625 C 10.179688 -12.226562 10.769531 -12.035156 11.375 -11.828125 C 11.988281 -11.617188 12.582031 -11.375 13.15625 -11.09375 C 13.738281 -10.820312 14.253906 -10.476562 14.703125 -10.0625 C 15.148438 -9.65625 15.507812 -9.160156 15.78125 -8.578125 C 16.0625 -7.992188 16.203125 -7.289062 16.203125 -6.46875 C 16.203125 -5.488281 16.019531 -4.582031 15.65625 -3.75 C 15.300781 -2.925781 14.773438 -2.210938 14.078125 -1.609375 C 13.390625 -1.003906 12.53125 -0.53125 11.5 -0.1875 C 10.46875 0.144531 9.273438 0.3125 7.921875 0.3125 C 7.234375 0.3125 6.546875 0.25 5.859375 0.125 C 5.179688 0 4.535156 -0.175781 3.921875 -0.40625 C 3.304688 -0.632812 2.726562 -0.894531 2.1875 -1.1875 C 1.65625 -1.488281 1.191406 -1.816406 0.796875 -2.171875 L 2.0625 -4.203125 C 2.207031 -4.429688 2.382812 -4.609375 2.59375 -4.734375 C 2.8125 -4.867188 3.09375 -4.9375 3.4375 -4.9375 C 3.757812 -4.9375 4.054688 -4.851562 4.328125 -4.6875 C 4.609375 -4.53125 4.914062 -4.359375 5.25 -4.171875 C 5.59375 -3.984375 5.992188 -3.804688 6.453125 -3.640625 C 6.921875 -3.472656 7.503906 -3.390625 8.203125 -3.390625 C 8.722656 -3.390625 9.171875 -3.445312 9.546875 -3.5625 C 9.929688 -3.6875 10.238281 -3.847656 10.46875 -4.046875 C 10.707031 -4.253906 10.878906 -4.484375 10.984375 -4.734375 C 11.097656 -4.992188 11.15625 -5.257812 11.15625 -5.53125 C 11.15625 -5.976562 11.015625 -6.34375 10.734375 -6.625 C 10.453125 -6.90625 10.085938 -7.148438 9.640625 -7.359375 C 9.191406 -7.566406 8.671875 -7.753906 8.078125 -7.921875 C 7.492188 -8.097656 6.894531 -8.289062 6.28125 -8.5 C 5.675781 -8.707031 5.082031 -8.953125 4.5 -9.234375 C 3.914062 -9.523438 3.398438 -9.890625 2.953125 -10.328125 C 2.503906 -10.765625 2.140625 -11.300781 1.859375 -11.9375 C 1.578125 -12.582031 1.4375 -13.363281 1.4375 -14.28125 C 1.4375 -15.113281 1.597656 -15.90625 1.921875 -16.65625 C 2.242188 -17.414062 2.734375 -18.082031 3.390625 -18.65625 C 4.046875 -19.226562 4.859375 -19.6875 5.828125 -20.03125 C 6.804688 -20.375 7.9375 -20.546875 9.21875 -20.546875 C 10.65625 -20.546875 11.960938 -20.304688 13.140625 -19.828125 C 14.316406 -19.359375 15.285156 -18.742188 16.046875 -17.984375 Z M 14.8125 -16.0625 "/></g></g></g><g fill="#ca2323" fill-opacity="1"><g transform="translate(318.807007, 196.626128)"><g><path d="M 15.0625 -12.5 C 15.0625 -13.0625 14.984375 -13.597656 14.828125 -14.109375 C 14.679688 -14.617188 14.445312 -15.066406 14.125 -15.453125 C 13.800781 -15.847656 13.390625 -16.160156 12.890625 -16.390625 C 12.390625 -16.617188 11.796875 -16.734375 11.109375 -16.734375 C 9.804688 -16.734375 8.789062 -16.363281 8.0625 -15.625 C 7.332031 -14.894531 6.851562 -13.851562 6.625 -12.5 Z M 6.546875 -9.28125 C 6.722656 -7.382812 7.265625 -6 8.171875 -5.125 C 9.078125 -4.25 10.265625 -3.8125 11.734375 -3.8125 C 12.472656 -3.8125 13.113281 -3.894531 13.65625 -4.0625 C 14.207031 -4.238281 14.6875 -4.4375 15.09375 -4.65625 C 15.507812 -4.875 15.882812 -5.070312 16.21875 -5.25 C 16.550781 -5.425781 16.878906 -5.515625 17.203125 -5.515625 C 17.617188 -5.515625 17.945312 -5.359375 18.1875 -5.046875 L 19.75 -3.078125 C 19.175781 -2.410156 18.539062 -1.859375 17.84375 -1.421875 C 17.15625 -0.984375 16.4375 -0.632812 15.6875 -0.375 C 14.945312 -0.125 14.195312 0.046875 13.4375 0.140625 C 12.675781 0.242188 11.941406 0.296875 11.234375 0.296875 C 9.828125 0.296875 8.507812 0.0664062 7.28125 -0.390625 C 6.0625 -0.859375 5 -1.546875 4.09375 -2.453125 C 3.1875 -3.367188 2.46875 -4.5 1.9375 -5.84375 C 1.414062 -7.1875 1.15625 -8.75 1.15625 -10.53125 C 1.15625 -11.90625 1.378906 -13.203125 1.828125 -14.421875 C 2.285156 -15.640625 2.9375 -16.695312 3.78125 -17.59375 C 4.632812 -18.5 5.664062 -19.21875 6.875 -19.75 C 8.09375 -20.28125 9.46875 -20.546875 11 -20.546875 C 12.300781 -20.546875 13.492188 -20.335938 14.578125 -19.921875 C 15.671875 -19.503906 16.613281 -18.90625 17.40625 -18.125 C 18.195312 -17.34375 18.8125 -16.378906 19.25 -15.234375 C 19.6875 -14.085938 19.90625 -12.78125 19.90625 -11.3125 C 19.90625 -10.90625 19.882812 -10.570312 19.84375 -10.3125 C 19.8125 -10.050781 19.75 -9.84375 19.65625 -9.6875 C 19.5625 -9.53125 19.4375 -9.421875 19.28125 -9.359375 C 19.125 -9.304688 18.921875 -9.28125 18.671875 -9.28125 Z M 6.546875 -9.28125 "/></g></g></g><g fill="#ca2323" fill-opacity="1"><g transform="translate(339.832764, 196.626128)"><g><path d="M 7.8125 -20.21875 L 7.8125 0 L 2.390625 0 L 2.390625 -20.21875 Z M 8.453125 -25.96875 C 8.453125 -25.507812 8.359375 -25.082031 8.171875 -24.6875 C 7.992188 -24.300781 7.75 -23.957031 7.4375 -23.65625 C 7.132812 -23.351562 6.773438 -23.117188 6.359375 -22.953125 C 5.953125 -22.785156 5.515625 -22.703125 5.046875 -22.703125 C 4.597656 -22.703125 4.171875 -22.785156 3.765625 -22.953125 C 3.367188 -23.117188 3.019531 -23.351562 2.71875 -23.65625 C 2.425781 -23.957031 2.191406 -24.300781 2.015625 -24.6875 C 1.835938 -25.082031 1.75 -25.507812 1.75 -25.96875 C 1.75 -26.425781 1.835938 -26.851562 2.015625 -27.25 C 2.191406 -27.65625 2.425781 -28.007812 2.71875 -28.3125 C 3.019531 -28.613281 3.367188 -28.847656 3.765625 -29.015625 C 4.171875 -29.179688 4.597656 -29.265625 5.046875 -29.265625 C 5.515625 -29.265625 5.953125 -29.179688 6.359375 -29.015625 C 6.773438 -28.847656 7.132812 -28.613281 7.4375 -28.3125 C 7.75 -28.007812 7.992188 -27.65625 8.171875 -27.25 C 8.359375 -26.851562 8.453125 -26.425781 8.453125 -25.96875 Z M 8.453125 -25.96875 "/></g></g></g></svg>